<?xml version="1.0" encoding="utf-8"?>
<!-- Generator: Adobe Illustrator 25.0.1, SVG Export Plug-In . SVG Version: 6.00 Build 0)  -->
<svg version="1.0" id="Layer_1" xmlns="http://www.w3.org/2000/svg" xmlns:xlink="http://www.w3.org/1999/xlink" x="0px" y="0px"
	 viewBox="0 0 147.2 99.1" style="enable-background:new 0 0 147.2 99.1;" xml:space="preserve">
<style type="text/css">
	.st0{fill:#00AEEF;}
	.st1{fill:#1B1464;}
	.st2{fill:#ED1D24;}
</style>
<path class="st0" d="M124.6,38.9l2.5-7.8c0,0-12.1,5.3-12.1,5.3c-0.2,0.5-0.2,0.9-0.8,2.4l-5.8,0l2.5-7.7c0,0-12.1,5.4-12.1,5.4
	c-0.2,0.5-0.2,0.4-0.8,2.4h-6.3l-1.3,4c-1.6-3-5.4-4.1-9.1-4.1c-5,0-8.5,2.1-9.9,5.1h-1.3c0.5-2,1.9-3.7,3.9-5.2c0.1,0-6.5,0-6.5,0
	c-0.8,0-1.5,0.2-2.3,0.7c-0.7,0.5-1.4,1.4-1.7,2.1l-9.3,28.3h7.2c1.1,0,1.8-0.3,2.6-0.9c0.7-0.5,1.1-1,1.4-1.8l1.6-4.6l1.4-4.4
	l4.7-14.3h3.6c2.8,0,5.4-0.5,3.8,4.6c-2.1,7.1-6.7,9.1-9.6,9.6l-1.3,4c5.1-0.1,16.3-1.2,19.7-8.7c1.9-4.2,2.2-7.5,1.5-9.5h5.4
	c0,0-3.1,9.4-3.9,11.9c-1.4,4,1.2,6.1,4.7,6.1h8.2c0,0,1.2-3.7,1.2-3.6c-3.4,0-4.4-0.7-3.4-3.7c0.7-2,3.5-10.7,3.5-10.7h5.8
	c0,0-3.2,9.5-4,12c-1.2,3.9,1.4,6.1,4.8,6.1c1.9,0,8.2,0,8.2,0c0,0,1.2-3.7,1.2-3.6c-3.4,0-4.4-0.7-3.4-3.7c0.7-2,3.5-10.8,3.5-10.8
	h5.4l1.7-5L124.6,38.9L124.6,38.9z"/>
<g transform="matrix(.893432 0 0 .893432 179.998 65.9852)">
	<path class="st0" d="M-157-45.7c-2.4,5.9-3.8,9.4-3.4,14.3c0.5,5.3,4.1,9.6,7.4,13.1c2.7,2.9,4.3,4.7,5,8c0.5,2.3,1.1,7.1-2.3,11.8
		c-4.1,5.6-10.7,5.8-10.7,5.8V9c0,0,7.9-0.3,13.3-5.2c3.7-3.4,5-6.3,6-10.9c0.8-3.9-0.2-9.4-2.6-13.6c-1.4-2.4-2.8-4.4-4.3-6
		c-2.8-3.3-4.8-5.4-6.6-8.1c-1.7-2.4-2.7-4.5-2.7-6.6c0-2,0.8-4.2,0.8-4.2L-157-45.7z"/>
	<path class="st0" d="M-166.6-45.7c2.4,5.9,3.8,9.4,3.3,14.3c-0.5,5.3-4.1,9.6-7.4,13.1c-2.7,2.9-4.3,4.7-5,8
		c-0.5,2.3-1.1,7.1,2.3,11.8c4.1,5.6,10.8,5.8,10.8,5.8V9c0,0-7.9-0.3-13.3-5.2c-3.7-3.4-5-6.3-6-10.9c-0.8-3.9,0.2-9.4,2.6-13.6
		c1.4-2.4,2.8-4.4,4.3-6c2.8-3.3,4.8-5.4,6.6-8.1c1.7-2.4,2.7-4.5,2.7-6.6c0-2-0.8-4.2-0.8-4.2L-166.6-45.7z"/>
	<path class="st1" d="M-159.2-23.8c1.2,1.9,4.1,5.5,6.4,7.7c2.4,2.3,3.9,5.6,3.9,9.3c0,7.2-5.8,13-13,13c-7.2,0-13-5.8-13-13
		c0-3.6,1.5-6.8,3.8-9.2c1.1-1.1,4.6-4.7,6.5-7.9c2.1-3.4,2.6-6.3,2.6-6.3S-161.3-27.2-159.2-23.8"/>
	<path class="st2" d="M-151.2-6.8c0,5.8-4.7,10.6-10.6,10.6c-5.9,0-10.6-4.7-10.6-10.6c0-5.8,4.7-10.6,10.6-10.6
		C-155.9-17.4-151.2-12.7-151.2-6.8"/>
</g>
</svg>
